<svg width="15" height="16" viewBox="0 0 15 16" fill="none" xmlns="http://www.w3.org/2000/svg">
<path d="M0.389976 3.13475L3.48997 0.274754C3.68624 0.0944069 3.9461 -0.000589691 4.2124 0.0106625C4.4787 0.0219147 4.72963 0.138494 4.90998 0.334754C5.09032 0.531014 5.18532 0.790879 5.17407 1.05718C5.16281 1.32348 5.04624 1.57441 4.84998 1.75475L3.46998 3.01475H8.09998C9.69127 3.01475 11.2174 3.6469 12.3426 4.77211C13.4678 5.89733 14.1 7.42346 14.1 9.01475C14.1 10.6061 13.4678 12.1322 12.3426 13.2574C11.2174 14.3826 9.69127 15.0148 8.09998 15.0148C7.83476 15.0148 7.5804 14.9094 7.39287 14.7219C7.20533 14.5343 7.09998 14.28 7.09998 14.0148C7.09998 13.7495 7.20533 13.4952 7.39287 13.3076C7.5804 13.1201 7.83476 13.0148 8.09998 13.0148C9.16084 13.0148 10.1783 12.5933 10.9284 11.8432C11.6785 11.093 12.1 10.0756 12.1 9.01475C12.1 7.95389 11.6785 6.93647 10.9284 6.18633C10.1783 5.43618 9.16084 5.01475 8.09998 5.01475H3.46998L4.84998 6.27475C4.99982 6.41094 5.10479 6.5894 5.151 6.78653C5.19722 6.98367 5.1825 7.19019 5.1088 7.37878C5.0351 7.56737 4.90588 7.72914 4.73825 7.8427C4.57061 7.95626 4.37245 8.01626 4.16998 8.01475C3.91956 8.01195 3.67838 7.91974 3.48997 7.75475L0.409975 4.91475C0.282104 4.80207 0.179482 4.66365 0.108826 4.50856C0.0381699 4.35346 0.0010767 4.18518 -2.47955e-05 4.01475C0.000109673 3.849 0.0348701 3.6851 0.10203 3.53356C0.169189 3.38202 0.267266 3.24619 0.389976 3.13475Z" fill="black"/>
</svg>
