<svg width="16" height="16" viewBox="0 0 16 16" fill="none" xmlns="http://www.w3.org/2000/svg">
<path d="M7.99999 4.71L8.48999 6.3L8.80999 7.36H11.73L10.19 8.54L9.36999 9.17L9.66999 10.17L10.21 11.93L8.90999 10.93L7.99999 10.23L7.08999 10.93L5.78999 11.93L6.32999 10.17L6.62999 9.17L5.80999 8.54L4.26999 7.36H7.18999L7.50999 6.3L7.99999 4.71ZM7.99999 0.999995C7.87492 0.998817 7.75282 1.0381 7.6519 1.11199C7.55097 1.18588 7.47664 1.29041 7.43999 1.41L6.07999 5.86H1.58999C1.47959 5.8715 1.37468 5.91392 1.2873 5.98237C1.19992 6.05082 1.13363 6.14254 1.09603 6.24697C1.05844 6.35141 1.05106 6.46433 1.07476 6.57277C1.09845 6.68121 1.15226 6.78076 1.22999 6.86L4.88999 9.72999L3.50999 14.25C3.48326 14.3372 3.47746 14.4294 3.49306 14.5192C3.50866 14.6091 3.54521 14.694 3.59977 14.767C3.65432 14.8401 3.72532 14.8993 3.80702 14.9397C3.88872 14.9802 3.97882 15.0009 4.06999 15C4.19615 14.9966 4.31826 14.9547 4.41999 14.88L7.99999 12.12L11.58 14.87C11.6775 14.9536 11.8016 14.9997 11.93 15C12.0216 14.9992 12.1117 14.9771 12.1933 14.9355C12.2749 14.8938 12.3457 14.8337 12.4 14.76C12.4543 14.6863 12.4908 14.6009 12.5064 14.5106C12.522 14.4204 12.5164 14.3277 12.49 14.24L11.11 9.72999L14.77 6.91C14.8477 6.83076 14.9015 6.73121 14.9252 6.62277C14.9489 6.51433 14.9415 6.40141 14.9039 6.29697C14.8663 6.19254 14.8001 6.10082 14.7127 6.03237C14.6253 5.96392 14.5204 5.9215 14.41 5.91H9.91999L8.55999 1.41C8.52333 1.29041 8.449 1.18588 8.34808 1.11199C8.24716 1.0381 8.12506 0.998817 7.99999 0.999995Z" fill="black"/>
</svg>
