 <svg width="16" height="16" viewBox="0 0 16 16" fill="none" xmlns="http://www.w3.org/2000/svg">
<path d="M8.56494 1.40442L9.93692 5.85625H14.4665C14.5779 5.86776 14.6837 5.91019 14.7719 5.97868C14.86 6.04716 14.9269 6.1389 14.9648 6.24338C15.0027 6.34786 15.0102 6.46083 14.9863 6.56931C14.9624 6.6778 14.9081 6.77739 14.8297 6.85666L11.1374 9.72783L12.5296 14.2397C12.5666 14.3576 12.5646 14.4842 12.524 14.601C12.4835 14.7178 12.4063 14.8187 12.3039 14.8891C12.2015 14.9594 12.0791 14.9954 11.9546 14.992C11.83 14.9886 11.7099 14.9458 11.6116 14.8699L8 12.1188L4.38844 14.8799C4.29012 14.9558 4.16995 14.9986 4.04542 15.002C3.92089 15.0054 3.79851 14.9694 3.69609 14.8991C3.59366 14.8287 3.51654 14.7278 3.47595 14.611C3.43536 14.4942 3.43342 14.3677 3.47042 14.2497L4.86258 9.72783L1.17032 6.90668C1.0919 6.82741 1.03763 6.72782 1.01372 6.61933C0.989816 6.51085 0.997256 6.39788 1.03518 6.2934C1.07311 6.18893 1.13999 6.09718 1.22814 6.0287C1.31628 5.96022 1.42212 5.91778 1.53349 5.90627H6.06307L7.43506 1.40442C7.47444 1.2867 7.55021 1.18427 7.65162 1.11167C7.75303 1.03907 7.87493 1 8 1C8.12507 1 8.24697 1.03907 8.34838 1.11167C8.44979 1.18427 8.52556 1.2867 8.56494 1.40442Z" fill="black"/>
</svg>
